<?xml version="1.0" encoding="UTF-8" standalone="no"?>
<!DOCTYPE svg PUBLIC "-//W3C//DTD SVG 1.1//EN"
 "http://www.w3.org/Graphics/SVG/1.1/DTD/svg11.dtd">
<!-- Generated by graphviz version 12.1.1 (20240910.0053)
 -->
<!-- Title: INFRA Pages: 1 -->
<svg width="1876pt" height="296pt"
 viewBox="0.00 0.00 1876.22 296.00" xmlns="http://www.w3.org/2000/svg" xmlns:xlink="http://www.w3.org/1999/xlink">
<g id="graph0" class="graph" transform="scale(1 1) rotate(0) translate(4 292)">
<title>INFRA</title>
<polygon fill="white" stroke="none" points="-4,4 -4,-292 1872.22,-292 1872.22,4 -4,4"/>
<!-- FrontLeftSwerveModule -->
<g id="node1" class="node">
<title>FrontLeftSwerveModule</title>
<path fill="#b7e0ff" stroke="black" stroke-width="2" d="M375.55,-180C375.55,-180 234.93,-180 234.93,-180 228.93,-180 222.93,-174 222.93,-168 222.93,-168 222.93,-120 222.93,-120 222.93,-114 228.93,-108 234.93,-108 234.93,-108 375.55,-108 375.55,-108 381.55,-108 387.55,-114 387.55,-120 387.55,-120 387.55,-168 387.55,-168 387.55,-174 381.55,-180 375.55,-180"/>
<text text-anchor="middle" x="305.24" y="-148.2" font-family="Arial" font-size="14.00">FrontLeftSwerveModule</text>
<text text-anchor="middle" x="305.24" y="-131.4" font-family="Arial" font-size="14.00">(SwerveModule)</text>
</g>
<!-- FrontLeftDriveMotor -->
<g id="node5" class="node">
<title>FrontLeftDriveMotor</title>
<path fill="#b7e0ff" stroke="black" stroke-width="2" d="M128.48,-72C128.48,-72 12,-72 12,-72 6,-72 0,-66 0,-60 0,-60 0,-12 0,-12 0,-6 6,0 12,0 12,0 128.48,0 128.48,0 134.48,0 140.48,-6 140.48,-12 140.48,-12 140.48,-60 140.48,-60 140.48,-66 134.48,-72 128.48,-72"/>
<text text-anchor="middle" x="70.24" y="-40.2" font-family="Arial" font-size="14.00">FrontLeftDriveMotor</text>
<text text-anchor="middle" x="70.24" y="-23.4" font-family="Arial" font-size="14.00">(Motor)</text>
</g>
<!-- FrontLeftSwerveModule&#45;&gt;FrontLeftDriveMotor -->
<g id="edge1" class="edge">
<title>FrontLeftSwerveModule&#45;&gt;FrontLeftDriveMotor</title>
<path fill="none" stroke="black" d="M226.66,-107.56C202.38,-96.6 175.59,-84.52 151.15,-73.5"/>
<polygon fill="black" stroke="black" points="152.77,-70.39 142.22,-69.47 149.89,-76.77 152.77,-70.39"/>
</g>
<!-- FrontLeftSteerMotor -->
<g id="node6" class="node">
<title>FrontLeftSteerMotor</title>
<path fill="#b7e0ff" stroke="black" stroke-width="2" d="M287.88,-72C287.88,-72 170.6,-72 170.6,-72 164.6,-72 158.6,-66 158.6,-60 158.6,-60 158.6,-12 158.6,-12 158.6,-6 164.6,0 170.6,0 170.6,0 287.88,0 287.88,0 293.88,0 299.88,-6 299.88,-12 299.88,-12 299.88,-60 299.88,-60 299.88,-66 293.88,-72 287.88,-72"/>
<text text-anchor="middle" x="229.24" y="-40.2" font-family="Arial" font-size="14.00">FrontLeftSteerMotor</text>
<text text-anchor="middle" x="229.24" y="-23.4" font-family="Arial" font-size="14.00">(Motor)</text>
</g>
<!-- FrontLeftSwerveModule&#45;&gt;FrontLeftSteerMotor -->
<g id="edge2" class="edge">
<title>FrontLeftSwerveModule&#45;&gt;FrontLeftSteerMotor</title>
<path fill="none" stroke="black" d="M279.93,-107.7C273.91,-99.3 267.4,-90.23 261.13,-81.47"/>
<polygon fill="black" stroke="black" points="263.99,-79.46 255.32,-73.37 258.3,-83.54 263.99,-79.46"/>
</g>
<!-- FrontLeftEncoder -->
<g id="node7" class="node">
<title>FrontLeftEncoder</title>
<path fill="#e6e6e6" stroke="black" stroke-width="2" d="M430.33,-72C430.33,-72 330.16,-72 330.16,-72 324.16,-72 318.16,-66 318.16,-60 318.16,-60 318.16,-12 318.16,-12 318.16,-6 324.16,0 330.16,0 330.16,0 430.33,0 430.33,0 436.33,0 442.33,-6 442.33,-12 442.33,-12 442.33,-60 442.33,-60 442.33,-66 436.33,-72 430.33,-72"/>
<text text-anchor="middle" x="380.24" y="-40.2" font-family="Arial" font-size="14.00">FrontLeftEncoder</text>
<text text-anchor="middle" x="380.24" y="-23.4" font-family="Arial" font-size="14.00">(Encoder)</text>
</g>
<!-- FrontLeftSwerveModule&#45;&gt;FrontLeftEncoder -->
<g id="edge3" class="edge">
<title>FrontLeftSwerveModule&#45;&gt;FrontLeftEncoder</title>
<path fill="none" stroke="black" d="M330.22,-107.7C336.16,-99.3 342.58,-90.23 348.78,-81.47"/>
<polygon fill="black" stroke="black" points="351.58,-83.56 354.5,-73.38 345.87,-79.52 351.58,-83.56"/>
</g>
<!-- FrontRightSwerveModule -->
<g id="node2" class="node">
<title>FrontRightSwerveModule</title>
<path fill="#b7e0ff" stroke="black" stroke-width="2" d="M858.22,-180C858.22,-180 708.26,-180 708.26,-180 702.26,-180 696.26,-174 696.26,-168 696.26,-168 696.26,-120 696.26,-120 696.26,-114 702.26,-108 708.26,-108 708.26,-108 858.22,-108 858.22,-108 864.22,-108 870.22,-114 870.22,-120 870.22,-120 870.22,-168 870.22,-168 870.22,-174 864.22,-180 858.22,-180"/>
<text text-anchor="middle" x="783.24" y="-148.2" font-family="Arial" font-size="14.00">FrontRightSwerveModule</text>
<text text-anchor="middle" x="783.24" y="-131.4" font-family="Arial" font-size="14.00">(SwerveModule)</text>
</g>
<!-- FrontRightDriveMotor -->
<g id="node8" class="node">
<title>FrontRightDriveMotor</title>
<path fill="#b7e0ff" stroke="black" stroke-width="2" d="M598.15,-72C598.15,-72 472.33,-72 472.33,-72 466.33,-72 460.33,-66 460.33,-60 460.33,-60 460.33,-12 460.33,-12 460.33,-6 466.33,0 472.33,0 472.33,0 598.15,0 598.15,0 604.15,0 610.15,-6 610.15,-12 610.15,-12 610.15,-60 610.15,-60 610.15,-66 604.15,-72 598.15,-72"/>
<text text-anchor="middle" x="535.24" y="-40.2" font-family="Arial" font-size="14.00">FrontRightDriveMotor</text>
<text text-anchor="middle" x="535.24" y="-23.4" font-family="Arial" font-size="14.00">(Motor)</text>
</g>
<!-- FrontRightSwerveModule&#45;&gt;FrontRightDriveMotor -->
<g id="edge4" class="edge">
<title>FrontRightSwerveModule&#45;&gt;FrontRightDriveMotor</title>
<path fill="none" stroke="black" d="M700.32,-107.56C674.82,-96.66 646.72,-84.65 621.03,-73.67"/>
<polygon fill="black" stroke="black" points="622.53,-70.5 611.96,-69.79 619.78,-76.94 622.53,-70.5"/>
</g>
<!-- FrontRightSteerMotor -->
<g id="node9" class="node">
<title>FrontRightSteerMotor</title>
<path fill="#b7e0ff" stroke="black" stroke-width="2" d="M766.54,-72C766.54,-72 639.94,-72 639.94,-72 633.94,-72 627.94,-66 627.94,-60 627.94,-60 627.94,-12 627.94,-12 627.94,-6 633.94,0 639.94,0 639.94,0 766.54,0 766.54,0 772.54,0 778.54,-6 778.54,-12 778.54,-12 778.54,-60 778.54,-60 778.54,-66 772.54,-72 766.54,-72"/>
<text text-anchor="middle" x="703.24" y="-40.2" font-family="Arial" font-size="14.00">FrontRightSteerMotor</text>
<text text-anchor="middle" x="703.24" y="-23.4" font-family="Arial" font-size="14.00">(Motor)</text>
</g>
<!-- FrontRightSwerveModule&#45;&gt;FrontRightSteerMotor -->
<g id="edge5" class="edge">
<title>FrontRightSwerveModule&#45;&gt;FrontRightSteerMotor</title>
<path fill="none" stroke="black" d="M756.6,-107.7C750.19,-99.21 743.27,-90.03 736.59,-81.19"/>
<polygon fill="black" stroke="black" points="739.49,-79.22 730.68,-73.35 733.91,-83.44 739.49,-79.22"/>
</g>
<!-- FrontRightEncoder -->
<g id="node10" class="node">
<title>FrontRightEncoder</title>
<path fill="#e6e6e6" stroke="black" stroke-width="2" d="M917.99,-72C917.99,-72 808.49,-72 808.49,-72 802.49,-72 796.49,-66 796.49,-60 796.49,-60 796.49,-12 796.49,-12 796.49,-6 802.49,0 808.49,0 808.49,0 917.99,0 917.99,0 923.99,0 929.99,-6 929.99,-12 929.99,-12 929.99,-60 929.99,-60 929.99,-66 923.99,-72 917.99,-72"/>
<text text-anchor="middle" x="863.24" y="-40.2" font-family="Arial" font-size="14.00">FrontRightEncoder</text>
<text text-anchor="middle" x="863.24" y="-23.4" font-family="Arial" font-size="14.00">(Encoder)</text>
</g>
<!-- FrontRightSwerveModule&#45;&gt;FrontRightEncoder -->
<g id="edge6" class="edge">
<title>FrontRightSwerveModule&#45;&gt;FrontRightEncoder</title>
<path fill="none" stroke="black" d="M809.88,-107.7C816.29,-99.21 823.22,-90.03 829.89,-81.19"/>
<polygon fill="black" stroke="black" points="832.58,-83.44 835.81,-73.35 826.99,-79.22 832.58,-83.44"/>
</g>
<!-- BackLeftSwerveModule -->
<g id="node3" class="node">
<title>BackLeftSwerveModule</title>
<path fill="#b7e0ff" stroke="black" stroke-width="2" d="M1243.78,-180C1243.78,-180 1104.7,-180 1104.7,-180 1098.7,-180 1092.7,-174 1092.7,-168 1092.7,-168 1092.7,-120 1092.7,-120 1092.7,-114 1098.7,-108 1104.7,-108 1104.7,-108 1243.78,-108 1243.78,-108 1249.78,-108 1255.78,-114 1255.78,-120 1255.78,-120 1255.78,-168 1255.78,-168 1255.78,-174 1249.78,-180 1243.78,-180"/>
<text text-anchor="middle" x="1174.24" y="-148.2" font-family="Arial" font-size="14.00">BackLeftSwerveModule</text>
<text text-anchor="middle" x="1174.24" y="-131.4" font-family="Arial" font-size="14.00">(SwerveModule)</text>
</g>
<!-- BackLeftDriveMotor -->
<g id="node11" class="node">
<title>BackLeftDriveMotor</title>
<path fill="#b7e0ff" stroke="black" stroke-width="2" d="M1074.71,-72C1074.71,-72 959.78,-72 959.78,-72 953.78,-72 947.78,-66 947.78,-60 947.78,-60 947.78,-12 947.78,-12 947.78,-6 953.78,0 959.78,0 959.78,0 1074.71,0 1074.71,0 1080.71,0 1086.71,-6 1086.71,-12 1086.71,-12 1086.71,-60 1086.71,-60 1086.71,-66 1080.71,-72 1074.71,-72"/>
<text text-anchor="middle" x="1017.24" y="-40.2" font-family="Arial" font-size="14.00">BackLeftDriveMotor</text>
<text text-anchor="middle" x="1017.24" y="-23.4" font-family="Arial" font-size="14.00">(Motor)</text>
</g>
<!-- BackLeftSwerveModule&#45;&gt;BackLeftDriveMotor -->
<g id="edge7" class="edge">
<title>BackLeftSwerveModule&#45;&gt;BackLeftDriveMotor</title>
<path fill="none" stroke="black" d="M1121.96,-107.7C1108.13,-98.37 1093.08,-88.2 1078.8,-78.56"/>
<polygon fill="black" stroke="black" points="1081.06,-75.86 1070.81,-73.17 1077.14,-81.67 1081.06,-75.86"/>
</g>
<!-- BackLeftSteerMotor -->
<g id="node12" class="node">
<title>BackLeftSteerMotor</title>
<path fill="#b7e0ff" stroke="black" stroke-width="2" d="M1232.1,-72C1232.1,-72 1116.38,-72 1116.38,-72 1110.38,-72 1104.38,-66 1104.38,-60 1104.38,-60 1104.38,-12 1104.38,-12 1104.38,-6 1110.38,0 1116.38,0 1116.38,0 1232.1,0 1232.1,0 1238.1,0 1244.1,-6 1244.1,-12 1244.1,-12 1244.1,-60 1244.1,-60 1244.1,-66 1238.1,-72 1232.1,-72"/>
<text text-anchor="middle" x="1174.24" y="-40.2" font-family="Arial" font-size="14.00">BackLeftSteerMotor</text>
<text text-anchor="middle" x="1174.24" y="-23.4" font-family="Arial" font-size="14.00">(Motor)</text>
</g>
<!-- BackLeftSwerveModule&#45;&gt;BackLeftSteerMotor -->
<g id="edge8" class="edge">
<title>BackLeftSwerveModule&#45;&gt;BackLeftSteerMotor</title>
<path fill="none" stroke="black" d="M1174.24,-107.7C1174.24,-99.93 1174.24,-91.57 1174.24,-83.43"/>
<polygon fill="black" stroke="black" points="1177.74,-83.66 1174.24,-73.66 1170.74,-83.66 1177.74,-83.66"/>
</g>
<!-- BackLeftEncoder -->
<g id="node13" class="node">
<title>BackLeftEncoder</title>
<path fill="#e6e6e6" stroke="black" stroke-width="2" d="M1372.55,-72C1372.55,-72 1273.93,-72 1273.93,-72 1267.93,-72 1261.93,-66 1261.93,-60 1261.93,-60 1261.93,-12 1261.93,-12 1261.93,-6 1267.93,0 1273.93,0 1273.93,0 1372.55,0 1372.55,0 1378.55,0 1384.55,-6 1384.55,-12 1384.55,-12 1384.55,-60 1384.55,-60 1384.55,-66 1378.55,-72 1372.55,-72"/>
<text text-anchor="middle" x="1323.24" y="-40.2" font-family="Arial" font-size="14.00">BackLeftEncoder</text>
<text text-anchor="middle" x="1323.24" y="-23.4" font-family="Arial" font-size="14.00">(Encoder)</text>
</g>
<!-- BackLeftSwerveModule&#45;&gt;BackLeftEncoder -->
<g id="edge9" class="edge">
<title>BackLeftSwerveModule&#45;&gt;BackLeftEncoder</title>
<path fill="none" stroke="black" d="M1223.86,-107.7C1236.86,-98.46 1251,-88.39 1264.43,-78.84"/>
<polygon fill="black" stroke="black" points="1266.24,-81.85 1272.36,-73.2 1262.18,-76.15 1266.24,-81.85"/>
</g>
<!-- BackRightSwerveModule -->
<g id="node4" class="node">
<title>BackRightSwerveModule</title>
<path fill="#b7e0ff" stroke="black" stroke-width="2" d="M1550.44,-180C1550.44,-180 1402.04,-180 1402.04,-180 1396.04,-180 1390.04,-174 1390.04,-168 1390.04,-168 1390.04,-120 1390.04,-120 1390.04,-114 1396.04,-108 1402.04,-108 1402.04,-108 1550.44,-108 1550.44,-108 1556.44,-108 1562.44,-114 1562.44,-120 1562.44,-120 1562.44,-168 1562.44,-168 1562.44,-174 1556.44,-180 1550.44,-180"/>
<text text-anchor="middle" x="1476.24" y="-148.2" font-family="Arial" font-size="14.00">BackRightSwerveModule</text>
<text text-anchor="middle" x="1476.24" y="-131.4" font-family="Arial" font-size="14.00">(SwerveModule)</text>
</g>
<!-- BackRightDriveMotor -->
<g id="node14" class="node">
<title>BackRightDriveMotor</title>
<path fill="#b7e0ff" stroke="black" stroke-width="2" d="M1538.37,-72C1538.37,-72 1414.11,-72 1414.11,-72 1408.11,-72 1402.11,-66 1402.11,-60 1402.11,-60 1402.11,-12 1402.11,-12 1402.11,-6 1408.11,0 1414.11,0 1414.11,0 1538.37,0 1538.37,0 1544.37,0 1550.37,-6 1550.37,-12 1550.37,-12 1550.37,-60 1550.37,-60 1550.37,-66 1544.37,-72 1538.37,-72"/>
<text text-anchor="middle" x="1476.24" y="-40.2" font-family="Arial" font-size="14.00">BackRightDriveMotor</text>
<text text-anchor="middle" x="1476.24" y="-23.4" font-family="Arial" font-size="14.00">(Motor)</text>
</g>
<!-- BackRightSwerveModule&#45;&gt;BackRightDriveMotor -->
<g id="edge10" class="edge">
<title>BackRightSwerveModule&#45;&gt;BackRightDriveMotor</title>
<path fill="none" stroke="black" d="M1476.24,-107.7C1476.24,-99.93 1476.24,-91.57 1476.24,-83.43"/>
<polygon fill="black" stroke="black" points="1479.74,-83.66 1476.24,-73.66 1472.74,-83.66 1479.74,-83.66"/>
</g>
<!-- BackRightSteerMotor -->
<g id="node15" class="node">
<title>BackRightSteerMotor</title>
<path fill="#b7e0ff" stroke="black" stroke-width="2" d="M1705.77,-72C1705.77,-72 1580.71,-72 1580.71,-72 1574.71,-72 1568.71,-66 1568.71,-60 1568.71,-60 1568.71,-12 1568.71,-12 1568.71,-6 1574.71,0 1580.71,0 1580.71,0 1705.77,0 1705.77,0 1711.77,0 1717.77,-6 1717.77,-12 1717.77,-12 1717.77,-60 1717.77,-60 1717.77,-66 1711.77,-72 1705.77,-72"/>
<text text-anchor="middle" x="1643.24" y="-40.2" font-family="Arial" font-size="14.00">BackRightSteerMotor</text>
<text text-anchor="middle" x="1643.24" y="-23.4" font-family="Arial" font-size="14.00">(Motor)</text>
</g>
<!-- BackRightSwerveModule&#45;&gt;BackRightSteerMotor -->
<g id="edge11" class="edge">
<title>BackRightSwerveModule&#45;&gt;BackRightSteerMotor</title>
<path fill="none" stroke="black" d="M1531.85,-107.7C1546.7,-98.28 1562.88,-88.01 1578.19,-78.29"/>
<polygon fill="black" stroke="black" points="1579.75,-81.45 1586.31,-73.13 1575.99,-75.54 1579.75,-81.45"/>
</g>
<!-- BackRightEncoder -->
<g id="node16" class="node">
<title>BackRightEncoder</title>
<path fill="#e6e6e6" stroke="black" stroke-width="2" d="M1856.22,-72C1856.22,-72 1748.27,-72 1748.27,-72 1742.27,-72 1736.27,-66 1736.27,-60 1736.27,-60 1736.27,-12 1736.27,-12 1736.27,-6 1742.27,0 1748.27,0 1748.27,0 1856.22,0 1856.22,0 1862.22,0 1868.22,-6 1868.22,-12 1868.22,-12 1868.22,-60 1868.22,-60 1868.22,-66 1862.22,-72 1856.22,-72"/>
<text text-anchor="middle" x="1802.24" y="-40.2" font-family="Arial" font-size="14.00">BackRightEncoder</text>
<text text-anchor="middle" x="1802.24" y="-23.4" font-family="Arial" font-size="14.00">(Encoder)</text>
</g>
<!-- BackRightSwerveModule&#45;&gt;BackRightEncoder -->
<g id="edge12" class="edge">
<title>BackRightSwerveModule&#45;&gt;BackRightEncoder</title>
<path fill="none" stroke="black" d="M1562.81,-110.59C1565.65,-109.7 1568.46,-108.83 1571.24,-108 1636.1,-88.65 1657.85,-94.51 1725.15,-72.47"/>
<polygon fill="black" stroke="black" points="1726.09,-75.84 1734.45,-69.33 1723.86,-69.21 1726.09,-75.84"/>
</g>
<!-- Pigeon2IMU -->
<g id="node17" class="node">
<title>Pigeon2IMU</title>
<path fill="#e6e6e6" stroke="black" stroke-width="2" d="M1661.76,-180C1661.76,-180 1592.72,-180 1592.72,-180 1586.72,-180 1580.72,-174 1580.72,-168 1580.72,-168 1580.72,-120 1580.72,-120 1580.72,-114 1586.72,-108 1592.72,-108 1592.72,-108 1661.76,-108 1661.76,-108 1667.76,-108 1673.76,-114 1673.76,-120 1673.76,-120 1673.76,-168 1673.76,-168 1673.76,-174 1667.76,-180 1661.76,-180"/>
<text text-anchor="middle" x="1627.24" y="-148.2" font-family="Arial" font-size="14.00">Pigeon2IMU</text>
<text text-anchor="middle" x="1627.24" y="-131.4" font-family="Arial" font-size="14.00">(IMU)</text>
</g>
<!-- RushSwerveDrivetrain -->
<g id="node18" class="node">
<title>RushSwerveDrivetrain</title>
<path fill="#b7e0ff" stroke="black" stroke-width="2" d="M1239.88,-288C1239.88,-288 1108.61,-288 1108.61,-288 1102.61,-288 1096.61,-282 1096.61,-276 1096.61,-276 1096.61,-228 1096.61,-228 1096.61,-222 1102.61,-216 1108.61,-216 1108.61,-216 1239.88,-216 1239.88,-216 1245.88,-216 1251.88,-222 1251.88,-228 1251.88,-228 1251.88,-276 1251.88,-276 1251.88,-282 1245.88,-288 1239.88,-288"/>
<text text-anchor="middle" x="1174.24" y="-256.2" font-family="Arial" font-size="14.00">RushSwerveDrivetrain</text>
<text text-anchor="middle" x="1174.24" y="-239.4" font-family="Arial" font-size="14.00">(SwerveDrivetrain)</text>
</g>
<!-- RushSwerveDrivetrain&#45;&gt;FrontLeftSwerveModule -->
<g id="edge13" class="edge">
<title>RushSwerveDrivetrain&#45;&gt;FrontLeftSwerveModule</title>
<path fill="none" stroke="black" d="M1096.36,-241.5C936.54,-222.01 572.07,-177.55 399.36,-156.48"/>
<polygon fill="black" stroke="black" points="399.86,-153.02 389.51,-155.28 399.02,-159.96 399.86,-153.02"/>
</g>
<!-- RushSwerveDrivetrain&#45;&gt;FrontRightSwerveModule -->
<g id="edge14" class="edge">
<title>RushSwerveDrivetrain&#45;&gt;FrontRightSwerveModule</title>
<path fill="none" stroke="black" d="M1096.52,-229.93C1034.82,-213.2 948.15,-189.71 881.61,-171.67"/>
<polygon fill="black" stroke="black" points="882.72,-168.34 872.15,-169.1 880.89,-175.1 882.72,-168.34"/>
</g>
<!-- RushSwerveDrivetrain&#45;&gt;BackLeftSwerveModule -->
<g id="edge15" class="edge">
<title>RushSwerveDrivetrain&#45;&gt;BackLeftSwerveModule</title>
<path fill="none" stroke="black" d="M1174.24,-215.7C1174.24,-207.93 1174.24,-199.57 1174.24,-191.43"/>
<polygon fill="black" stroke="black" points="1177.74,-191.66 1174.24,-181.66 1170.74,-191.66 1177.74,-191.66"/>
</g>
<!-- RushSwerveDrivetrain&#45;&gt;BackRightSwerveModule -->
<g id="edge16" class="edge">
<title>RushSwerveDrivetrain&#45;&gt;BackRightSwerveModule</title>
<path fill="none" stroke="black" d="M1252.01,-223.7C1290.68,-210.13 1337.79,-193.59 1378.84,-179.19"/>
<polygon fill="black" stroke="black" points="1379.98,-182.5 1388.26,-175.88 1377.66,-175.89 1379.98,-182.5"/>
</g>
<!-- RushSwerveDrivetrain&#45;&gt;Pigeon2IMU -->
<g id="edge17" class="edge">
<title>RushSwerveDrivetrain&#45;&gt;Pigeon2IMU</title>
<path fill="none" stroke="black" d="M1252.32,-245.84C1331.65,-238.66 1457.34,-221.9 1569.75,-180.08"/>
<polygon fill="black" stroke="black" points="1570.72,-183.46 1578.82,-176.63 1568.23,-176.91 1570.72,-183.46"/>
</g>
</g>
</svg>
